<svg xmlns="http://www.w3.org/2000/svg" xmlns:xlink="http://www.w3.org/1999/xlink" width="366" height="187" version="1.1" viewBox="0 0 366 187"><title>Group 2</title><defs><filter id="filter-1" width="105.5%" height="138.7%" x="-2.8%" y="-19.4%" filterUnits="objectBoundingBox"><feGaussianBlur in="SourceGraphic" stdDeviation="3.189"/></filter></defs><g id="Page-1" fill="none" fill-rule="evenodd" stroke="none" stroke-width="1"><g id="Group-2" fill="#000" fill-rule="nonzero" transform="translate(6.000000, 0.000000)"><path id="Blog" d="M86.0906478,168.770852 C89.0097358,168.770852 93.2667392,168.56944 98.8616579,168.166614 C104.456577,167.763789 110.872489,167.217097 118.109395,166.526539 C125.3463,165.835981 133.069721,165.02074 141.279656,164.080814 C149.489591,163.140888 157.638712,162.133824 165.727018,161.059623 C173.815324,159.985422 181.599559,158.882448 189.079722,157.7507 C196.559885,156.618952 203.188648,155.496796 208.966009,154.384231 C214.743371,153.271665 219.334853,152.207055 222.740456,151.190401 C226.146059,150.173746 227.84886,149.262593 227.84886,148.456942 C227.84886,147.421106 226.054837,146.615455 222.466792,146.03999 C218.878746,145.464525 214.226449,145.052109 208.509902,144.80274 C202.793355,144.553372 196.438257,144.399915 189.444608,144.342369 C182.45096,144.284822 175.548533,144.256049 168.737328,144.256049 C163.99381,144.256049 159.432734,144.246458 155.054102,144.227276 C150.67547,144.208093 146.81376,144.160138 143.468972,144.083409 C140.124183,144.006681 137.47876,143.891588 135.532701,143.73813 C133.586643,143.584673 132.613613,143.354487 132.613613,143.047573 C132.613613,142.817387 133.130535,142.520063 134.164379,142.155602 C135.198222,141.791141 136.596952,141.397907 138.360568,140.975899 C140.124183,140.553891 142.131056,140.09352 144.381187,139.594783 C146.631317,139.096047 149.033483,138.578129 151.587685,138.041028 C154.871659,137.35047 158.216448,136.631139 161.62205,135.883035 C165.027653,135.134931 168.098777,134.386826 170.835422,133.638722 C173.572067,132.890618 175.79179,132.152104 177.494592,131.423182 C179.197393,130.69426 180.048794,129.98452 180.048794,129.293962 C180.048794,128.680133 179.2278,128.238943 177.585813,127.970393 C175.943826,127.701843 173.663289,127.567568 170.744201,127.567568 C166.487197,127.567568 160.801057,127.836118 153.68578,128.373218 C146.570503,128.910319 138.695047,129.639241 130.059411,130.559985 C121.423776,131.480729 112.301626,132.574112 102.692961,133.840135 C93.0842962,135.106157 83.5972601,136.4585 74.2318527,137.897162 C64.8664453,139.335824 55.9267382,140.841624 47.4127314,142.414561 C38.8987247,143.987499 31.3881545,145.550845 24.8810207,147.1046 C18.373887,148.658355 13.2046686,150.173746 9.3733656,151.650772 C5.54206256,153.127799 3.62641105,154.499324 3.62641105,155.765346 C3.62641105,156.532633 4.47781172,157.184826 6.18061307,157.721927 C6.66712774,157.875384 7.21445675,157.875384 7.82260008,157.721927 C8.43074342,157.56847 8.43074342,157.376648 7.82260008,157.146462 C6.72794207,156.724454 6.18061307,156.264082 6.18061307,155.765346 C6.18061307,154.576052 8.06585742,153.281256 11.8363461,151.880958 C15.6068348,150.480661 20.6848317,149.022816 27.0703368,147.507425 C33.4558418,145.992035 40.8447834,144.467053 49.2371615,142.93248 C57.6295395,141.397907 66.447618,139.930471 75.6913967,138.530173 C84.9351755,137.129876 94.2701757,135.806306 103.696397,134.559466 C113.122619,133.312625 122.092733,132.228833 130.60674,131.308089 C139.120747,130.387345 146.874575,129.668014 153.868223,129.150096 C160.861871,128.632178 166.487197,128.373218 170.744201,128.373218 C175.244461,128.373218 177.494592,128.680133 177.494592,129.293962 C177.494592,129.831063 176.673598,130.435301 175.031611,131.106677 C173.389624,131.778052 171.261122,132.459019 168.646106,133.149577 C166.03109,133.840135 163.081594,134.549875 159.79762,135.278797 C156.513646,136.007719 153.290487,136.698277 150.128141,137.35047 C147.573939,137.887571 145.080552,138.424671 142.647978,138.961772 C140.215405,139.498873 138.056496,140.016791 136.171252,140.515527 C134.286007,141.014263 132.796056,141.474635 131.701398,141.896643 C130.60674,142.31865 130.059411,142.702294 130.059411,143.047573 C130.059411,143.546309 131.093255,143.929952 133.160942,144.198502 C135.22863,144.467053 138.056496,144.668465 141.644542,144.80274 C145.232588,144.937016 149.367962,145.013744 154.050666,145.032926 C158.73337,145.052109 163.628924,145.0617 168.737328,145.0617 C175.305276,145.0617 181.934038,145.080882 188.623615,145.119246 C195.313191,145.15761 201.364218,145.282295 206.776693,145.493298 C212.189169,145.704302 216.628615,146.03999 220.095033,146.500362 C223.56145,146.960734 225.294658,147.612927 225.294658,148.456942 C225.294658,149.185865 223.622264,150.010698 220.277476,150.931441 C216.932687,151.852185 212.432426,152.840066 206.776693,153.895085 C201.12096,154.950104 194.613827,156.024305 187.255292,157.117689 C179.896758,158.211072 172.234152,159.285273 164.267474,160.340292 C156.300796,161.395311 148.273304,162.383192 140.184998,163.303936 C132.096691,164.22468 124.525307,165.030331 117.470844,165.720889 C110.416381,166.411446 104.152505,166.958138 98.6792149,167.360963 C93.2059249,167.763789 89.0097358,167.965202 86.0906478,167.965202 C83.4148171,167.965202 82.0769018,167.466465 82.0769018,166.468993 C82.0769018,165.624978 82.5330093,164.560368 83.4452243,163.275163 C84.3574393,161.989958 85.6345403,160.58966 87.2765273,159.074269 C88.9185143,157.558878 90.8341658,155.995532 93.0234819,154.384231 C95.2127979,152.772929 97.5845569,151.209583 100.138759,149.694192 C102.692961,148.178801 105.368792,146.74973 108.166251,145.406979 C110.96371,144.064227 113.76117,142.93248 116.558629,142.011736 C116.923515,141.819914 116.862701,141.637684 116.376186,141.465044 C115.889671,141.292405 115.342342,141.282814 114.734199,141.436271 C111.815111,142.395379 108.956837,143.5559 106.159378,144.917833 C103.361919,146.279767 100.655681,147.747202 98.0406644,149.32014 C95.425648,150.893077 92.9930747,152.51397 90.7429443,154.182818 C88.492814,155.851666 86.5467553,157.453377 84.9047683,158.98795 C83.2627813,160.522523 81.9552731,161.942003 80.9822438,163.24639 C80.0092144,164.550777 79.5226997,165.624978 79.5226997,166.468993 C79.5226997,167.197915 80.1004359,167.763789 81.2559083,168.166614 C82.4113806,168.56944 84.0229604,168.770852 86.0906478,168.770852 Z M236.423681,162.843564 C239.707655,162.843564 243.63018,162.622969 248.191255,162.18178 C252.75233,161.74059 257.951955,160.982894 263.790132,159.908693 C264.398275,159.7936 264.519904,159.630552 264.155018,159.419548 C263.790132,159.208544 263.303617,159.141407 262.695474,159.218135 C256.978926,160.215608 251.961744,160.934939 247.643926,161.376129 C243.326108,161.817318 239.586027,162.037913 236.423681,162.037913 C233.261336,162.037913 230.707134,161.846092 228.761075,161.462448 C226.815017,161.078805 225.477101,160.580069 224.747329,159.96624 C229.24759,159.390775 233.170114,158.709808 236.514903,157.92334 C239.859691,157.136871 242.65715,156.33122 244.907281,155.506387 C247.157411,154.681554 248.829805,153.866312 249.924463,153.060661 C251.019121,152.255011 251.56645,151.545271 251.56645,150.931441 C251.56645,150.279248 251.019121,149.751738 249.924463,149.348913 C248.829805,148.946088 247.187818,148.744675 244.998502,148.744675 C242.4443,148.744675 239.798877,149.003634 237.062232,149.521552 C234.325587,150.039471 231.771385,150.73962 229.399626,151.621999 C227.027867,152.504379 225.081808,153.530624 223.56145,154.700736 C222.041091,155.870848 221.280912,157.108098 221.280912,158.412485 C221.280912,159.640143 222.466792,160.685571 224.838551,161.548768 C227.21031,162.411966 231.07202,162.843564 236.423681,162.843564 Z M224.017557,159.160589 C223.895928,159.007132 223.835114,158.757764 223.835114,158.412485 C223.835114,157.223191 224.504072,156.091443 225.841987,155.017242 C227.179903,153.943041 228.913111,153.003115 231.041613,152.197464 C233.170114,151.391813 235.481059,150.749211 237.974447,150.269657 C240.467834,149.790103 242.809186,149.550326 244.998502,149.550326 C247.674333,149.550326 249.012248,150.010698 249.012248,150.931441 C249.012248,151.468542 248.495327,152.101553 247.461483,152.830475 C246.427639,153.559398 244.876874,154.297911 242.809186,155.046015 C240.741499,155.794119 238.15689,156.532633 235.055359,157.261555 C231.953828,157.990477 228.274561,158.623488 224.017557,159.160589 Z M265.432119,163.24639 C267.499806,163.24639 269.020164,162.949066 269.993194,162.354419 C270.966223,161.759772 271.391923,161.193898 271.270295,160.656798 C272.973096,160.733526 274.919155,160.791073 277.108471,160.829437 C279.297787,160.867801 281.608731,160.886984 284.041305,160.886984 C292.190426,160.886984 299.001631,160.580069 304.474921,159.96624 C305.204693,159.851147 305.44795,159.668916 305.204693,159.419548 C304.961436,159.17018 304.474921,159.08386 303.745149,159.160589 C298.271859,159.774418 291.703911,160.081333 284.041305,160.081333 C281.73036,160.081333 279.419415,160.05256 277.108471,159.995013 C274.797526,159.937467 272.547396,159.831965 270.35808,159.678507 C269.871565,159.640143 269.38505,159.659325 268.898536,159.736054 C268.412021,159.812783 268.229578,159.985422 268.351207,160.253972 C268.594464,160.791073 268.412021,161.289809 267.803878,161.750181 C267.195734,162.210553 266.405148,162.440739 265.432119,162.440739 C264.702347,162.440739 264.307053,162.306464 264.246239,162.037913 C264.185425,161.769363 264.337461,161.462448 264.702347,161.11717 C265.067233,160.771891 265.584154,160.436203 266.253112,160.110106 C266.92207,159.784009 267.743063,159.563414 268.716093,159.448321 C269.445865,159.371593 269.628308,159.198953 269.263422,158.930403 C268.898536,158.661853 268.351207,158.565942 267.621435,158.642671 C266.161891,158.834492 264.915197,159.179771 263.881353,159.678507 C262.847509,160.177244 262.178552,160.685571 261.87448,161.203489 C261.570408,161.721408 261.66163,162.191371 262.148145,162.613378 C262.634659,163.035386 263.729317,163.24639 265.432119,163.24639 Z M282.946647,177 C288.784823,177 294.136484,176.462899 299.001631,175.388698 C303.866778,174.314497 308.062967,173.01011 311.590198,171.475537 C315.11743,169.940964 317.884482,168.339254 319.891355,166.670406 C321.898228,165.001557 322.901664,163.553304 322.901664,162.325646 C331.780557,161.481631 340.65945,160.695162 349.538343,159.96624 C350.268115,159.889511 350.541779,159.716872 350.359336,159.448321 C350.176893,159.179771 349.659971,159.08386 348.808571,159.160589 C344.551567,159.505868 340.233749,159.870329 335.855117,160.253972 C331.476485,160.637615 327.097853,161.040441 322.719221,161.462448 C322.475964,160.848619 322.050264,160.388247 321.44212,160.081333 C323.631436,159.69769 325.820752,159.563414 328.010068,159.678507 C328.73984,159.716872 329.165541,159.61137 329.287169,159.362002 C329.408798,159.112634 328.983098,158.949585 328.010068,158.872857 C326.550524,158.796128 325.182202,158.81531 323.905101,158.930403 C322.628,159.045496 321.381306,159.198953 320.165019,159.390775 C319.070361,159.007132 317.823667,158.748173 316.424938,158.613897 C315.026208,158.479622 313.657886,158.412485 312.31997,158.412485 C310.009025,158.412485 307.941338,158.642671 306.116908,159.103043 C304.292478,159.563414 303.380263,160.062151 303.380263,160.599251 C303.380263,161.021259 303.866778,161.347356 304.839807,161.577541 C305.812836,161.807727 307.029123,161.92282 308.488667,161.92282 C310.556355,161.92282 312.411192,161.769363 314.053179,161.462448 C315.695166,161.155534 317.36756,160.829437 319.070361,160.484158 C319.678505,160.829437 320.043391,161.251445 320.165019,161.750181 C313.597071,162.402374 307.302788,163.102523 301.282169,163.850628 C295.26155,164.598732 289.940295,165.433156 285.318406,166.3539 C280.696517,167.274644 276.986842,168.272116 274.189383,169.346317 C271.391923,170.420518 269.993194,171.609812 269.993194,172.914199 C269.993194,174.026765 271.270295,174.985873 273.824497,175.791524 C276.378699,176.597175 279.419416,177 282.946647,177 Z M308.488667,161.11717 C306.785866,161.11717 305.934465,160.94453 305.934465,160.599251 C305.934465,160.253972 306.573016,159.937467 307.850117,159.649734 C309.127218,159.362002 310.617169,159.218135 312.31997,159.218135 C313.293,159.218135 314.235622,159.266091 315.147837,159.362002 C316.060052,159.457913 316.94186,159.620961 317.79326,159.851147 C316.333716,160.158061 314.843765,160.445794 313.323407,160.714344 C311.803048,160.982894 310.191468,161.11717 308.488667,161.11717 Z M282.946647,176.194349 C280.149188,176.194349 277.716614,175.868252 275.648927,175.216059 C273.581239,174.563865 272.547396,173.796579 272.547396,172.914199 C272.547396,171.76327 273.854904,170.689069 276.46992,169.691596 C279.084937,168.694124 282.581761,167.77338 286.960393,166.929365 C291.339025,166.08535 296.417022,165.298881 302.194384,164.569959 C307.971745,163.841037 314.022772,163.169661 320.347462,162.555832 C320.225834,163.361483 319.739319,164.253453 318.887918,165.231743 C318.036518,166.210034 316.789824,167.197915 315.147837,168.195387 C313.50585,169.19286 311.590198,170.17115 309.400882,171.130258 C307.211566,172.089366 304.748586,172.942973 302.011941,173.691077 C299.275296,174.439181 296.295393,175.043419 293.072234,175.503791 C289.849074,175.964163 286.473878,176.194349 282.946647,176.194349 Z" filter="url(#filter-1)" transform="translate(177.020240, 152.283784) scale(1, -1) translate(-177.020240, -152.283784)"/><path id="Blog" d="M82.4642368,130.629189 C85.3833248,130.629189 89.6403281,129.990639 95.2352469,128.713538 C100.830166,127.436437 107.246078,125.703228 114.482984,123.513912 C121.719889,121.324596 129.44331,118.739987 137.653245,115.760085 C145.86318,112.780182 154.012301,109.58743 162.100607,106.181827 C170.188913,102.776224 177.973148,99.2794001 185.453311,95.6913544 C192.933474,92.1033087 199.562237,88.5456701 205.339598,85.0184388 C211.11696,81.4912074 215.708442,78.1160119 219.114045,74.8928522 C222.519648,71.6696925 224.222449,68.7810116 224.222449,66.2268096 C224.222449,62.9428356 222.428426,60.3886335 218.84038,58.5642035 C215.252335,56.7397735 210.600038,55.4322653 204.883491,54.641679 C199.166943,53.8510927 192.811846,53.364578 185.818197,53.182135 C178.824549,52.999692 171.922122,52.9084705 165.110917,52.9084705 C160.367398,52.9084705 155.806323,52.8780633 151.427691,52.817249 C147.049059,52.7564346 143.187349,52.6043988 139.842561,52.3611415 C136.497772,52.1178841 133.852349,51.7529981 131.90629,51.2664835 C129.960232,50.7799688 128.987202,50.0501968 128.987202,49.0771674 C128.987202,48.3473954 129.504124,47.4047733 130.537968,46.2493009 C131.571811,45.0938286 132.970541,43.8471347 134.734157,42.5092194 C136.497772,41.171304 138.504645,39.71176 140.754776,38.1305873 C143.004906,36.5494147 145.407072,34.9074277 147.961274,33.2046263 C151.245248,31.0153103 154.590037,28.7347728 157.995639,26.3630137 C161.401242,23.9912547 164.472366,21.6194957 167.209011,19.2477367 C169.945656,16.8759777 172.165379,14.5346258 173.868181,12.2236811 C175.570982,9.91273642 176.422383,7.66260607 176.422383,5.47329005 C176.422383,3.52723137 175.601389,2.12850169 173.959402,1.27710101 C172.317415,0.425700337 170.036878,0 167.11779,0 C162.860786,0 157.174646,0.851400674 150.059369,2.55420202 C142.944092,4.25700337 135.068636,6.56794806 126.433,9.48703609 C117.797365,12.4061241 108.675215,15.8725411 99.0665499,19.8862872 C89.4578851,23.9000332 79.9708491,28.1874438 70.6054416,32.7485188 C61.2400342,37.3095938 52.3003271,42.083519 43.7863204,47.0702944 C35.2723137,52.0570698 27.7617434,57.013438 21.2546097,61.9393991 C14.747476,66.8653601 9.57825759,71.6696925 5.74695455,76.3523962 C1.91565152,81.0350999 0,85.3833248 0,89.3970708 C0,91.8296442 0.851400674,93.8973315 2.55420202,95.6001329 C3.04071669,96.0866475 3.5880457,96.0866475 4.19618904,95.6001329 C4.80433238,95.1136182 4.80433238,94.5054749 4.19618904,93.7757029 C3.10153103,92.4377875 2.55420202,90.9782435 2.55420202,89.3970708 C2.55420202,85.6265821 4.43944637,81.5216146 8.20993507,77.0821682 C11.9804238,72.6427218 17.0584207,68.0208325 23.4439257,63.2165001 C29.8294308,58.4121677 37.2183723,53.5774282 45.6107504,48.7122814 C54.0031285,43.8471347 62.8212069,39.1948382 72.0649857,34.7553918 C81.3087644,30.3159454 90.6437647,26.1197564 100.069986,22.1668247 C109.496208,18.213893 118.466322,14.7778831 126.980329,11.8587951 C135.494336,8.93970708 143.248163,6.65916956 150.241812,5.01718255 C157.23546,3.37519553 162.860786,2.55420202 167.11779,2.55420202 C171.61805,2.55420202 173.868181,3.52723137 173.868181,5.47329005 C173.868181,7.1760914 173.047187,9.09174292 171.4052,11.2202446 C169.763213,13.3487463 167.634711,15.5076551 165.019695,17.6969712 C162.404679,19.8862872 159.455183,22.1364175 156.171209,24.4473622 C152.887235,26.7583069 149.664076,28.9476229 146.50173,31.0153103 C143.947528,32.7181116 141.454141,34.420913 139.021567,36.1237143 C136.588994,37.8265157 134.430085,39.4685027 132.544841,41.0496754 C130.659596,42.6308481 129.169645,44.0903921 128.074987,45.4283074 C126.980329,46.7662228 126.433,47.9825094 126.433,49.0771674 C126.433,50.6583401 127.466844,51.8746268 129.534531,52.7260275 C131.602219,53.5774282 134.430085,54.2159787 138.018131,54.641679 C141.606176,55.0673793 145.741551,55.3106367 150.424255,55.371451 C155.106959,55.4322653 160.002512,55.4626725 165.110917,55.4626725 C171.678865,55.4626725 178.307627,55.5234868 184.997204,55.6451155 C191.68678,55.7667442 197.737807,56.1620373 203.150282,56.830995 C208.562758,57.4999527 213.002204,58.5642035 216.468621,60.0237475 C219.935039,61.4832916 221.668247,63.5509789 221.668247,66.2268096 C221.668247,68.5377543 219.995853,71.1527706 216.651064,74.0718587 C213.306276,76.9909467 208.806015,80.1228849 203.150282,83.4676733 C197.494549,86.8124616 190.987416,90.2180643 183.628881,93.6844814 C176.270347,97.1508984 168.607741,100.556501 160.641063,103.901289 C152.674385,107.246078 144.646893,110.378016 136.558587,113.297104 C128.47028,116.216192 120.898896,118.770394 113.844433,120.95971 C106.78997,123.149026 100.526094,124.882235 95.0528039,126.159336 C89.5795138,127.436437 85.3833248,128.074987 82.4642368,128.074987 C79.7884061,128.074987 78.4504907,126.493814 78.4504907,123.331469 C78.4504907,120.655638 78.9065982,117.280443 79.8188132,113.205883 C80.7310282,109.131322 82.0081292,104.691876 83.6501163,99.8875434 C85.2921033,95.083211 87.2077548,90.1268428 89.3970708,85.0184388 C91.5863868,79.9100347 93.9581459,74.9536665 96.5123479,70.1493341 C99.0665499,65.3450018 101.742381,60.8143339 104.53984,56.5573305 C107.337299,52.3003271 110.134759,48.7122814 112.932218,45.7931934 C113.297104,45.1850501 113.23629,44.6073139 112.749775,44.0599849 C112.26326,43.5126559 111.715931,43.4822487 111.107788,43.9687634 C108.1887,47.0094801 105.330426,50.6887473 102.532967,55.006565 C99.7355076,59.3243827 97.0292697,63.9766792 94.4142534,68.9634546 C91.799237,73.95023 89.3666636,79.0890412 87.1165333,84.3798883 C84.8664029,89.6707353 82.9203443,94.7487322 81.2783572,99.6138789 C79.6363702,104.479026 78.328862,108.979286 77.3558327,113.114661 C76.3828034,117.250036 75.8962887,120.655638 75.8962887,123.331469 C75.8962887,125.642414 76.4740249,127.436437 77.6294972,128.713538 C78.7849696,129.990639 80.3965494,130.629189 82.4642368,130.629189 Z M232.79727,111.83756 C236.081244,111.83756 240.003769,111.138195 244.564844,109.739465 C249.125919,108.340736 254.325544,105.93857 260.16372,102.532967 C260.771864,102.168081 260.893492,101.651159 260.528606,100.982201 C260.16372,100.313244 259.677206,100.100394 259.069062,100.343651 C253.352515,103.505996 248.335333,105.786534 244.017515,107.185263 C239.699697,108.583993 235.959616,109.283358 232.79727,109.283358 C229.634925,109.283358 227.080723,108.675215 225.134664,107.458928 C223.188605,106.242641 221.85069,104.661469 221.120918,102.71541 C225.621179,100.89098 229.543703,98.7320711 232.888492,96.2386834 C236.23328,93.7452957 239.030739,91.1910937 241.28087,88.5760773 C243.531,85.9610609 245.203394,83.3764518 246.298052,80.8222497 C247.39271,78.2680477 247.940039,76.0179174 247.940039,74.0718587 C247.940039,72.0041713 247.39271,70.3317771 246.298052,69.0546761 C245.203394,67.7775751 243.561407,67.1390246 241.372091,67.1390246 C238.817889,67.1390246 236.172466,67.9600181 233.435821,69.6020051 C230.699176,71.2439921 228.144974,73.4637153 225.773215,76.2611747 C223.401456,79.0586341 221.455397,82.3122009 219.935039,86.0218753 C218.41468,89.7315497 217.654501,93.6540742 217.654501,97.7894489 C217.654501,101.681566 218.840381,104.995947 221.21214,107.732592 C223.583899,110.469238 227.445609,111.83756 232.79727,111.83756 Z M220.391146,100.161208 C220.269517,99.6746932 220.208703,98.8841069 220.208703,97.7894489 C220.208703,94.0189602 220.877661,90.4309145 222.215576,87.0253118 C223.553491,83.6197091 225.2867,80.6398067 227.415202,78.0856047 C229.543703,75.5314027 231.854648,73.4941225 234.348036,71.9737642 C236.841423,70.4534058 239.182775,69.6932266 241.372091,69.6932266 C244.047922,69.6932266 245.385837,71.1527706 245.385837,74.0718587 C245.385837,75.77466 244.868916,77.781533 243.835072,80.0924777 C242.801228,82.4034224 241.250463,84.7447743 239.182775,87.1165333 C237.115088,89.4882923 234.530479,91.8296442 231.428948,94.1405889 C228.327417,96.4515335 224.648149,98.4584066 220.391146,100.161208 Z M261.805708,113.114661 C263.873395,113.114661 265.393753,112.172039 266.366783,110.286795 C267.339812,108.40155 267.765512,106.607527 267.643884,104.904726 C269.346685,105.147983 271.292744,105.330426 273.48206,105.452055 C275.671376,105.573684 277.98232,105.634498 280.414894,105.634498 C288.564015,105.634498 295.37522,104.661469 300.84851,102.71541 C301.578282,102.350524 301.821539,101.772788 301.578282,100.982201 C301.335025,100.191615 300.84851,99.9179506 300.118738,100.161208 C294.645448,102.107267 288.0775,103.080296 280.414894,103.080296 C278.103949,103.080296 275.793004,102.989074 273.48206,102.806631 C271.171115,102.624188 268.920985,102.28971 266.731669,101.803195 C266.245154,101.681566 265.758639,101.742381 265.272125,101.985638 C264.78561,102.228895 264.603167,102.776224 264.724796,103.627625 C264.968053,105.330426 264.78561,106.911599 264.177467,108.371143 C263.569323,109.830687 262.778737,110.560459 261.805708,110.560459 C261.075936,110.560459 260.680642,110.134759 260.619828,109.283358 C260.559014,108.431957 260.71105,107.458928 261.075936,106.36427 C261.440822,105.269612 261.957743,104.205361 262.626701,103.171517 C263.295659,102.137674 264.116652,101.438309 265.089682,101.073423 C265.819454,100.830166 266.001897,100.282837 265.637011,99.4314359 C265.272125,98.5800352 264.724796,98.2759636 263.995024,98.5192209 C262.53548,99.1273642 261.288786,100.222022 260.254942,101.803195 C259.221098,103.384368 258.552141,104.995947 258.248069,106.637934 C257.943997,108.279921 258.035219,109.769873 258.521734,111.107788 C259.008248,112.445703 260.102906,113.114661 261.805708,113.114661 Z M279.320236,156.718538 C285.158412,156.718538 290.510073,155.015737 295.37522,151.610134 C300.240367,148.204532 304.436556,144.069157 307.963787,139.20401 C311.491018,134.338864 314.258071,129.260867 316.264944,123.97002 C318.271817,118.679173 319.275253,114.08769 319.275253,110.195573 C328.154146,107.519742 337.033039,105.026355 345.911931,102.71541 C346.641703,102.472153 346.915368,101.924824 346.732925,101.073423 C346.550482,100.222022 346.03356,99.9179506 345.182159,100.161208 C340.925156,101.255866 336.607338,102.411338 332.228706,103.627625 C327.850074,104.843912 323.471442,106.121013 319.09281,107.458928 C318.849553,105.512869 318.423853,104.053325 317.815709,103.080296 C320.005025,101.864009 322.194341,101.438309 324.383657,101.803195 C325.113429,101.924824 325.53913,101.590345 325.660758,100.799758 C325.782387,100.009172 325.356687,99.4922502 324.383657,99.2489929 C322.924113,99.0057356 321.555791,99.0665499 320.27869,99.4314359 C319.001589,99.7963219 317.754895,100.282837 316.538608,100.89098 C315.44395,99.6746932 314.197256,98.8536997 312.798527,98.4279994 C311.399797,98.0022991 310.031474,97.7894489 308.693559,97.7894489 C306.382614,97.7894489 304.314927,98.5192209 302.490497,99.9787649 C300.666067,101.438309 299.753852,103.019482 299.753852,104.722283 C299.753852,106.060198 300.240367,107.094042 301.213396,107.823814 C302.186425,108.553586 303.402712,108.918472 304.862256,108.918472 C306.929943,108.918472 308.784781,108.431957 310.426768,107.458928 C312.068755,106.485899 313.741149,105.452055 315.44395,104.357397 C316.052094,105.452055 316.41698,106.78997 316.538608,108.371143 C309.97066,110.43883 303.676377,112.658554 297.655758,115.030313 C291.635138,117.402072 286.313884,120.047495 281.691995,122.966583 C277.070106,125.885671 273.360431,129.048017 270.562972,132.453619 C267.765512,135.859222 266.366783,139.629711 266.366783,143.765085 C266.366783,147.292317 267.643884,150.333033 270.198086,152.887235 C272.752288,155.441437 275.793005,156.718538 279.320236,156.718538 Z M304.862256,106.36427 C303.159455,106.36427 302.308054,105.816941 302.308054,104.722283 C302.308054,103.627625 302.946605,102.624188 304.223706,101.711973 C305.500807,100.799758 306.990758,100.343651 308.693559,100.343651 C309.666588,100.343651 310.609211,100.495687 311.521426,100.799758 C312.433641,101.10383 313.315449,101.620752 314.166849,102.350524 C312.707305,103.323553 311.217354,104.235768 309.696996,105.087169 C308.176637,105.93857 306.565057,106.36427 304.862256,106.36427 Z M279.320236,154.164336 C276.522777,154.164336 274.090203,153.130493 272.022516,151.062805 C269.954828,148.995118 268.920985,146.562545 268.920985,143.765085 C268.920985,140.116225 270.228493,136.710623 272.843509,133.548277 C275.458526,130.385932 278.95535,127.466844 283.333982,124.791013 C287.712614,122.115182 292.790611,119.621795 298.567973,117.31085 C304.345334,114.999905 310.39636,112.871404 316.721051,110.925345 C316.599423,113.479547 316.112908,116.307414 315.261507,119.408945 C314.410107,122.510476 313.163413,125.642414 311.521426,128.804759 C309.879439,131.967105 307.963787,135.068636 305.774471,138.109352 C303.585155,141.150069 301.122175,143.856307 298.38553,146.228066 C295.648885,148.599825 292.668982,150.515476 289.445822,151.97502 C286.222663,153.434564 282.847467,154.164336 279.320236,154.164336 Z"/></g></g></svg>