<svg xmlns="http://www.w3.org/2000/svg" xmlns:xlink="http://www.w3.org/1999/xlink" version="1.1" viewBox="0 0 150 115"><style>#combined,#moe{fill:#000}@media (prefers-color-scheme:dark){#combined,#moe{fill:#c9c9c9}}</style><title>Group</title><defs><linearGradient id="linearGradient-1" x1="0%" x2="100%" y1="0%" y2="0%"><stop offset="0%" stop-color="#47E6A3"/><stop offset="100%" stop-color="#7B8CFF"/></linearGradient></defs><g id="Page-1" fill="none" fill-rule="evenodd" stroke="none" stroke-width="1"><g id="Group"><rect id="Rectangle" width="146" height="146" x="0" y="0"/><text id="moe" font-family="Herculanum" font-size="29" font-weight="normal" letter-spacing=".325"><tspan x="62.481" y="113">MOE</tspan></text><path id="Path" fill="url(#linearGradient-1)" fill-rule="nonzero" d="M117.507022,79.3095086 C98.4174972,86.7368645 83.0227188,92.9263277 71.3226872,97.8778983 C59.6226556,102.829469 42.0726082,99.115791 18.672545,86.7368645 C-4.72751817,74.357938 -3.49593589,63.8358505 22.3672918,55.170602 C48.2305196,46.5053535 70.0911049,35.3643196 87.9490479,21.7475005 C105.806991,8.13068142 119.970187,12.4633057 130.438636,34.7453733 C140.907086,57.027441 136.596548,71.8821527 117.507022,79.3095086 Z"/><ellipse id="Oval" cx="58" cy="61" fill="#000" rx="8" ry="13"/><ellipse id="Oval" cx="121" cy="60" fill="#000" rx="8" ry="13"/><path id="combined" d="M77.2902101,44.1439871 C77.7235143,44.1682947 77.6832168,42.6025503 79.9269398,42.6850766 C81.5129146,42.7434102 85.1626626,42.6153886 86.9359761,43.1256531 C88.0286732,43.4400727 87.6793318,44.5034253 87.8687352,44.4931929 C91.7011371,44.2861484 95.5090451,43.7190272 99.3003541,43.1256531 C115.534448,40.5848707 120.210108,39.1346767 135.50872,42.6850766 C140.184019,43.7700887 140.257873,42.3243341 144.150949,44.1354389 C145.012783,44.5363745 145.400747,49.4972151 144.430856,52.162334 C144.236348,52.6968155 143.558927,52.7595359 143.27181,53.1183218 C142.081056,54.606309 141.002622,55.4974115 140.800061,56.0071497 C140.09773,57.7745451 139.544939,59.5799842 139.042926,61.377764 L138.856858,62.0514831 L138.856858,62.0514831 L138.674393,62.7239486 C138.644218,62.835892 138.614145,62.9477608 138.58415,63.0595439 L138.404919,63.7291247 C138.315578,64.0633116 138.226503,64.3965263 138.137042,64.7284674 L137.957416,65.3905626 C136.031806,72.4328944 133.733463,78.8042421 124.741505,81.5796138 C114.036563,84.8836987 100.751597,82.6507361 94.7932331,72.4773721 C93.1462986,69.6653814 90.8400913,67.2063438 89.6124832,64.1902098 C87.3673856,58.6741866 89.3265375,54.4801839 83.0221647,55.7943951 C78.629912,56.7100053 79.3409565,62.0741408 78.2621051,65.2426406 C76.8367412,69.42882 72.3497011,74.9744182 68.8263562,78.2352746 C67.0575595,79.8722963 62.6740898,82.4459472 60.4473972,82.4459472 C60.3006327,82.4459472 57.6767159,82.5289119 54.937472,82.5630739 L54.3278127,82.5698086 C53.9213875,82.5736914 53.5162709,82.5762888 53.1201425,82.5771725 L52.5336508,82.5771591 C50.9927692,82.5734102 49.6571347,82.5388131 49.018239,82.4459472 C47.3828438,82.2082362 45.1488307,82.3203277 40.0938613,80.453406 C39.3731615,80.1872342 36.1653267,78.0467841 34.0318965,74.7804273 C31.6943969,71.2016331 30.4222262,66.3944801 29.7150653,64.1902098 C29.2063387,62.6044734 27.2501912,56.7440335 26.6145013,55.6190722 C25.2603005,53.2225834 24.477646,52.2021337 24.0419714,51.8680568 C22.6056295,50.7666645 23.4233497,51.4961796 23,46.2315042 L23.3165589,43.8462657 C23.3165589,43.8462657 26.8465439,43.0994187 30.7719566,42.1900006 L31.3633424,42.0524416 C31.4622704,42.0293363 31.5613476,42.0061476 31.6605249,41.9828846 L32.2563999,41.8424895 L32.2563999,41.8424895 L32.8523289,41.7007512 C33.7450877,41.4873557 34.6300947,41.2709063 35.4716455,41.0580584 C39.9563906,39.9237611 46.0921199,40.1967409 51.1860981,40.0175409 C60.0563562,39.705496 68.5520688,43.6537928 77.2902101,44.1439871 Z M117.168612,44.2135887 C110.299572,43.3526377 101.61815,45.3248482 100.234139,46.0486134 C97.7323265,47.3569304 94.2866328,48.1895457 93.2420401,51.3937954 C92.7872809,52.7887525 92.973343,55.7599889 93.8002264,60.3075047 C94.3719381,62.9246832 95.9408909,67.3758818 98.0057939,70.1792555 C102.772854,76.6511584 111.068177,81.3270241 118.030404,79.6604428 C119.758815,79.2467048 126.377709,78.7303464 129.11763,76.0996411 C133.291071,72.0925568 133.200116,71.041068 134.791676,66.1520564 C136.456681,61.0374329 137.721218,57.5147911 136.534292,52.026991 C134.881225,44.3839709 130.044121,45.4288454 123.774892,44.6346593 C121.480995,44.3440683 119.462894,44.5011492 117.168612,44.2135887 Z M60.8322037,44.0708892 C58.6266987,44.0409332 55.8524538,43.9275751 53.6514845,44.0708892 C49.291833,44.3547639 44.5052026,44.2596418 40.2383992,45.3764669 C37.8996187,45.9886368 35.6590667,46.4724256 33.8656468,48.7298194 C31.5217704,51.6800778 31.8027437,56.3947203 32.4793998,59.6533281 C33.5753075,64.9309477 35.5237828,73.9102146 42.020275,77.2086879 C42.9383107,77.6748036 46.4038136,79 47.5587585,79 L47.5587585,79 L54,79 C67.7609699,76.8109045 70.443485,73.7220566 74.7470655,61.2680396 C75.1285119,60.164182 76.0901952,57.1304844 75.9931635,55.9676284 C75.4314641,49.2360654 73.7894722,47.7204941 68.6398152,45.9991929 C67.6333598,45.6627796 61.8942332,44.085314 60.8322037,44.0708892 Z"/></g></g></svg>